<svg xmlns="http://www.w3.org/2000/svg" height="800" width="1200" viewBox="-26.977995 -12.0118 233.80929 72.0708"><path d="M17.9632 25.0236h-9.7c-.8 0-1.5.2-2.1.7-.3.3-5 4-5.6 4.6-1 .8-.5 1.3.2 1.3h14.1c1 0 1.1.5 1 1.1l-2.9 14.5c-.2.9.6 1 1 .6l5.3-4.3c.7-.5 1.8-1.3 2.1-2.7 0 0 1.4-7.2 2.1-10.1.5-3.5-2.1-5.7-5.5-5.7zm31.4 0h-16.6c-3 0-6.4 2.5-6.9 4.8l-1.6 8c-.2.9.5 1.1 1.3.6l7.7-6.2c.4-.3 1-.6 1.5-.6h7.1c.8 0 1.5-.2 2.1-.7.3-.3 5-4 5.6-4.6 1-.8.4-1.3-.2-1.3zm-21.9-14.9c.2-.9-.5-1.1-1.3-.6l-7.7 6.3c-.4.3-1 .6-1.5.6h-7c-.8 0-1.5.2-2.1.7-.3.3-5 4-5.6 4.6-1 .8-.5 1.3.2 1.3l16.5-.1c3 0 6.4-2.5 6.9-4.8zm23.6 6.2h-14.1c-1 0-1.1-.5-1-1l2.9-14.5c.2-.9-.6-1-1-.6l-5.7 4.6c-.6.5-1.5 1.3-1.7 2.7-.6 3.1-1.4 6.8-2 9.8-.7 3.5 2 5.7 5.3 5.7h9.7c.8 0 1.5-.2 2.1-.7.3-.3 5-4 5.6-4.6 1-.9.5-1.4-.1-1.4zm54.4 0l1-5.2h-19.1l-4.1 20.4c-.6 2.8 1.1 5.2 4.1 5.2h14l1-5.2h-11.7c-1.1 0-1.5-.9-1.3-1.7l.7-3.5h12.5l1-5.2h-12.5l1-4.9zm70.2-5.2h-15.4l-5.2 25.7h5.7l1.5-7.3h9.1l-1.5 7.3h5.7l4.1-20.5c.8-2.8-1-5.2-4-5.2zm-1.9 6.9l-1.3 6.3h-9.1l1.6-8h7.6c1.1 0 1.3 1.1 1.2 1.7zm-95.9-6.9h-10.9c-2.7 0-5.1 2.5-5.6 5.2l-3.1 15.3c-.6 2.9 1.3 5.2 4 5.2h10.8c2.5 0 5.3-2.3 5.9-5.2l.6-3h-5.7l-.3 1.3c-.2 1.1-1.3 1.7-1.9 1.7h-6c-.8 0-1.4-.7-1.3-1.7l2.4-12.1s.3-1.5 1.9-1.5h6c1 0 1.4 1 1.3 1.7l-.3 1.3h5.7l.6-3c.6-3.1-1.3-5.2-4.1-5.2zm72.8 0h-10.4c-2.9 0-5.6 2.2-6.1 5.2l-.9 4.6c-.5 2.5 1.2 4.2 3.5 4.5l9.3 1.6c.2 0 .8.3.7 1.1l-.4 1.8c-.2 1-1 1.7-2 1.7h-5.9c-1 0-1.4-.8-1.3-1.7l.3-1.4h-5.7l-.6 3c-.6 2.9 1.3 5.2 4 5.2h10.6c2.8 0 5.4-2.3 6-5.2l.9-4.7c.5-2.9-1.3-4.1-4.1-4.5l-8.5-1.4s-1-.2-.8-1.4l.3-1.5c.2-1 1.2-1.7 2.2-1.7h5.6c1.2 0 1.5 1.1 1.4 1.7l-.3 1.4h5.7l.6-3c.5-2.9-1-5.3-4.1-5.3zm-24.7 0h-14.9l-5.1 25.7h5.7l1.5-7.3h9.5c2.9 0 5.4-2.7 5.9-5.2l1.6-8c.5-3-1.2-5.2-4.2-5.2zm-1.9 6.8l-.9 4.6c-.1.5-.7 1.6-1.9 1.6h-7l1.6-7.9h7c.8.1 1.4.9 1.2 1.7z" fill="#D52B1E"/></svg>